<?xml version="1.0" encoding="utf-8"?>
<!-- Generator: Adobe Illustrator 19.0.0, SVG Export Plug-In . SVG Version: 6.00 Build 0)  -->
<svg version="1.1" id="Layer_1" xmlns="http://www.w3.org/2000/svg" xmlns:xlink="http://www.w3.org/1999/xlink" x="0px" y="0px"
	 viewBox="-81 141 448 512" style="enable-background:new -81 141 448 512;" xml:space="preserve">
<style type="text/css">
	.st0{fill:#003DAF;}
</style>
<path class="st0" d="M-81,237c0-17.7,14.3-32,32-32h384c17.7,0,32,14.3,32,32s-14.3,32-32,32H-49C-66.7,269-81,254.7-81,237z
	 M-81,397c0-17.7,14.3-32,32-32h384c17.7,0,32,14.3,32,32s-14.3,32-32,32H-49C-66.7,429-81,414.7-81,397z M367,557
	c0,17.7-14.3,32-32,32H-49c-17.7,0-32-14.3-32-32s14.3-32,32-32h384C352.7,525,367,539.3,367,557z"/>
</svg>
