<svg width="18" height="21" viewBox="0 0 18 21" fill="none" xmlns="http://www.w3.org/2000/svg">
<path d="M18 14.25C17.9479 15.1094 17.5312 15.6953 16.75 16.0078V18.625H17.0625C17.6354 18.6771 17.9479 18.9896 18 19.5625C17.9479 20.1354 17.6354 20.4479 17.0625 20.5H3.625C2.73958 20.474 1.9974 20.1745 1.39844 19.6016C0.825521 19.0026 0.526042 18.2604 0.5 17.375V3.625C0.526042 2.73958 0.825521 1.9974 1.39844 1.39844C1.9974 0.825521 2.73958 0.526042 3.625 0.5H16.125C16.6458 0.526042 17.0885 0.708333 17.4531 1.04688C17.7917 1.41146 17.974 1.85417 18 2.375V14.25ZM14.875 18.625V16.125H3.625C3.26042 16.125 2.96094 16.2422 2.72656 16.4766C2.49219 16.7109 2.375 17.0104 2.375 17.375C2.375 17.7396 2.49219 18.0391 2.72656 18.2734C2.96094 18.5078 3.26042 18.625 3.625 18.625H14.875ZM16.125 14.25V2.375H3.625C3.26042 2.375 2.96094 2.49219 2.72656 2.72656C2.49219 2.96094 2.375 3.26042 2.375 3.625V14.5234C2.76562 14.3411 3.18229 14.25 3.625 14.25H16.125ZM6.4375 6.75C5.86458 6.69792 5.55208 6.38542 5.5 5.8125C5.55208 5.23958 5.86458 4.92708 6.4375 4.875H13.3125C13.8854 4.92708 14.1979 5.23958 14.25 5.8125C14.1979 6.38542 13.8854 6.69792 13.3125 6.75H6.4375ZM6.4375 9.875C5.86458 9.82292 5.55208 9.51042 5.5 8.9375C5.55208 8.36458 5.86458 8.05208 6.4375 8H13.3125C13.8854 8.05208 14.1979 8.36458 14.25 8.9375C14.1979 9.51042 13.8854 9.82292 13.3125 9.875H6.4375Z" fill="#003DAF"/>
</svg>
