<svg width="14" height="14" viewBox="0 0 14 14" fill="none" xmlns="http://www.w3.org/2000/svg">
<path d="M12.9375 11.6484C13.3021 12.0911 13.3021 12.5339 12.9375 12.9766C12.4948 13.3411 12.0521 13.3411 11.6094 12.9766L7 8.32812L2.35156 12.9766C1.90885 13.3411 1.46615 13.3411 1.02344 12.9766C0.658854 12.5339 0.658854 12.0911 1.02344 11.6484L5.67188 7L1.02344 2.3125C0.658854 1.86979 0.658854 1.42708 1.02344 0.984375C1.46615 0.619792 1.90885 0.619792 2.35156 0.984375L7 5.67188L11.6484 1.02344C12.0911 0.658854 12.5339 0.658854 12.9766 1.02344C13.3411 1.46615 13.3411 1.90885 12.9766 2.35156L8.32812 7L12.9375 11.6484Z" fill="white"/>
</svg>
