<svg width="21" height="19" viewBox="0 0 21 19" fill="none" xmlns="http://www.w3.org/2000/svg">
<path d="M7.375 0.75C7.89583 0.776042 8.33854 0.958333 8.70312 1.29688C9.04167 1.66146 9.22396 2.10417 9.25 2.625V7C9.22396 7.52083 9.04167 7.96354 8.70312 8.32812C8.33854 8.66667 7.89583 8.84896 7.375 8.875H2.375C1.85417 8.84896 1.41146 8.66667 1.04688 8.32812C0.708333 7.96354 0.526042 7.52083 0.5 7V2.625C0.526042 2.10417 0.708333 1.66146 1.04688 1.29688C1.41146 0.958333 1.85417 0.776042 2.375 0.75H7.375ZM7.375 2.625H2.375V7H7.375V2.625ZM7.375 10.125C7.89583 10.151 8.33854 10.3333 8.70312 10.6719C9.04167 11.0365 9.22396 11.4792 9.25 12V16.375C9.22396 16.8958 9.04167 17.3385 8.70312 17.7031C8.33854 18.0417 7.89583 18.224 7.375 18.25H2.375C1.85417 18.224 1.41146 18.0417 1.04688 17.7031C0.708333 17.3385 0.526042 16.8958 0.5 16.375V12C0.526042 11.4792 0.708333 11.0365 1.04688 10.6719C1.41146 10.3333 1.85417 10.151 2.375 10.125H7.375ZM7.375 12H2.375V16.375H7.375V12ZM10.5 2.625C10.526 2.10417 10.7083 1.66146 11.0469 1.29688C11.4115 0.958333 11.8542 0.776042 12.375 0.75H18.625C19.1458 0.776042 19.5885 0.958333 19.9531 1.29688C20.2917 1.66146 20.474 2.10417 20.5 2.625V3.875C20.474 4.39583 20.2917 4.83854 19.9531 5.20312C19.5885 5.54167 19.1458 5.72396 18.625 5.75H12.375C11.8542 5.72396 11.4115 5.54167 11.0469 5.20312C10.7083 4.83854 10.526 4.39583 10.5 3.875V2.625ZM12.375 3.875H18.625V2.625H12.375V3.875ZM18.625 7C19.1458 7.02604 19.5885 7.20833 19.9531 7.54688C20.2917 7.91146 20.474 8.35417 20.5 8.875V10.125C20.474 10.6458 20.2917 11.0885 19.9531 11.4531C19.5885 11.7917 19.1458 11.974 18.625 12H12.375C11.8542 11.974 11.4115 11.7917 11.0469 11.4531C10.7083 11.0885 10.526 10.6458 10.5 10.125V8.875C10.526 8.35417 10.7083 7.91146 11.0469 7.54688C11.4115 7.20833 11.8542 7.02604 12.375 7H18.625ZM18.625 8.875H12.375V10.125H18.625V8.875ZM10.5 15.125C10.526 14.6042 10.7083 14.1615 11.0469 13.7969C11.4115 13.4583 11.8542 13.276 12.375 13.25H18.625C19.1458 13.276 19.5885 13.4583 19.9531 13.7969C20.2917 14.1615 20.474 14.6042 20.5 15.125V16.375C20.474 16.8958 20.2917 17.3385 19.9531 17.7031C19.5885 18.0417 19.1458 18.224 18.625 18.25H12.375C11.8542 18.224 11.4115 18.0417 11.0469 17.7031C10.7083 17.3385 10.526 16.8958 10.5 16.375V15.125ZM12.375 16.375H18.625V15.125H12.375V16.375Z" fill="#003DAF"/>
</svg>
