<svg width="16" height="17" viewBox="0 0 16 17" fill="none" xmlns="http://www.w3.org/2000/svg">
<path d="M14 10C15.0938 10 16 10.9062 16 12V14.5C16 15.625 15.0938 16.5 14 16.5H2C0.875 16.5 0 15.625 0 14.5V12C0 10.9062 0.875 10 2 10H3.65625L5.15625 11.5H2C1.71875 11.5 1.5 11.75 1.5 12V14.5C1.5 14.7812 1.71875 15 2 15H14C14.25 15 14.5 14.7812 14.5 14.5V12C14.5 11.75 14.25 11.5 14 11.5H10.8125L12.3125 10H14ZM13.5 13.25C13.5 13.6875 13.1562 14 12.75 14C12.3125 14 12 13.6875 12 13.25C12 12.8438 12.3125 12.5 12.75 12.5C13.1562 12.5 13.5 12.8438 13.5 13.25ZM7.46875 12.0312L3.1875 7.78125C2.875 7.5 2.875 7.03125 3.1875 6.71875C3.46875 6.4375 3.9375 6.4375 4.25 6.71875L7.25 9.71875V1.25C7.25 0.84375 7.5625 0.5 8 0.5C8.40625 0.5 8.75 0.84375 8.75 1.25V9.71875L11.7188 6.75C12 6.4375 12.4688 6.4375 12.75 6.75C13.0625 7.03125 13.0625 7.5 12.75 7.78125L8.5 12.0312C8.375 12.1875 8.1875 12.25 8 12.25C7.78125 12.25 7.59375 12.1875 7.46875 12.0312Z" fill="white"/>
</svg>
