<svg width="25" height="26" viewBox="0 0 25 26" fill="none" xmlns="http://www.w3.org/2000/svg">
<path d="M12.5 0.625C19.3848 0.625 25 6.24023 25 13.125C25 20.0586 19.3848 25.625 12.5 25.625C5.56641 25.625 0 20.0586 0 13.125C0 6.24023 5.56641 0.625 12.5 0.625ZM12.5 23.2812C18.0664 23.2812 22.6562 18.7402 22.6562 13.125C22.6562 7.55859 18.0664 2.96875 12.5 2.96875C6.88477 2.96875 2.34375 7.55859 2.34375 13.125C2.34375 18.7402 6.88477 23.2812 12.5 23.2812ZM12.5 17.0312C13.3301 17.0312 14.0625 17.7148 14.0625 18.5938C14.0625 19.4727 13.3301 20.1562 12.5 20.1562C11.5723 20.1562 10.9375 19.4727 10.9375 18.5938C10.9375 17.7148 11.6211 17.0312 12.5 17.0312ZM14.1113 6.875C16.0645 6.875 17.5781 8.38867 17.5293 10.293C17.5293 11.4648 16.8945 12.5879 15.8691 13.2227L13.6719 14.5898V14.6875C13.6719 15.3223 13.1348 15.8594 12.5 15.8594C11.8652 15.8594 11.3281 15.3223 11.3281 14.6875V13.9062C11.3281 13.5156 11.5234 13.125 11.9141 12.8809L14.6973 11.2207C15.0391 11.0254 15.2344 10.6836 15.2344 10.293C15.2344 9.70703 14.6973 9.21875 14.0625 9.21875H11.5723C10.9863 9.21875 10.5469 9.70703 10.5469 10.293C10.5469 10.9277 10.0098 11.4648 9.375 11.4648C8.74023 11.4648 8.20312 10.9277 8.20312 10.293C8.20312 8.38867 9.7168 6.875 11.6211 6.875H14.1113Z" fill="#003DAF"/>
</svg>
