<svg width="21" height="20" viewBox="0 0 21 20" fill="none" xmlns="http://www.w3.org/2000/svg">
<path d="M19.6875 18.3984C20.0781 18.7891 20.0781 19.375 19.6875 19.7266C19.5312 19.9219 19.2969 20 19.0625 20C18.7891 20 18.5547 19.9219 18.3594 19.7266L13.125 14.4922C11.7188 15.625 9.96094 16.25 8.08594 16.25C3.63281 16.25 0 12.6172 0 8.125C0 3.67188 3.59375 0 8.08594 0C12.5391 0 16.2109 3.67188 16.2109 8.125C16.2109 10.0391 15.5859 11.7969 14.4531 13.1641L19.6875 18.3984ZM1.875 8.125C1.875 11.6016 4.64844 14.375 8.125 14.375C11.5625 14.375 14.375 11.6016 14.375 8.125C14.375 4.6875 11.5625 1.875 8.125 1.875C4.64844 1.875 1.875 4.6875 1.875 8.125Z" fill="#003DAF"/>
</svg>
