<svg width="16" height="17" viewBox="0 0 16 17" fill="none" xmlns="http://www.w3.org/2000/svg">
<path d="M8.75 8.75C8.75 9.1875 8.40625 9.5 8 9.5C7.5625 9.5 7.25 9.1875 7.25 8.75V1.25C7.25 0.84375 7.5625 0.5 8 0.5C8.40625 0.5 8.75 0.84375 8.75 1.25V8.75ZM1.75 8.6875C1.75 12 4.40625 14.6875 7.75 14.6875C11.0625 14.6875 13.75 12 13.75 8.6875C13.75 6.71875 12.7812 4.96875 11.2812 3.875C10.9688 3.625 10.875 3.15625 11.125 2.8125C11.375 2.5 11.8438 2.40625 12.1875 2.65625C14.0312 4.03125 15.25 6.21875 15.25 8.6875C15.25 12.8438 11.875 16.1875 7.75 16.1875C3.59375 16.1875 0.25 12.8438 0.25 8.6875C0.25 6.21875 1.4375 4.03125 3.28125 2.65625C3.625 2.40625 4.09375 2.5 4.34375 2.8125C4.59375 3.15625 4.5 3.625 4.1875 3.875C2.6875 4.96875 1.71875 6.71875 1.71875 8.6875H1.75Z" fill="white"/>
</svg>
