<svg width="16" height="16" viewBox="0 0 16 16" fill="none" xmlns="http://www.w3.org/2000/svg">
<path d="M8.75 8.25C8.75 8.6875 8.40625 9 8 9C7.5625 9 7.25 8.6875 7.25 8.25V0.75C7.25 0.34375 7.5625 0 8 0C8.40625 0 8.75 0.34375 8.75 0.75V8.25ZM1.75 8.1875C1.75 11.5 4.40625 14.1875 7.75 14.1875C11.0625 14.1875 13.75 11.5 13.75 8.1875C13.75 6.21875 12.7812 4.46875 11.2812 3.375C10.9688 3.125 10.875 2.65625 11.125 2.3125C11.375 2 11.8438 1.90625 12.1875 2.15625C14.0312 3.53125 15.25 5.71875 15.25 8.1875C15.25 12.3438 11.875 15.6875 7.75 15.6875C3.59375 15.6875 0.25 12.3438 0.25 8.1875C0.25 5.71875 1.4375 3.53125 3.28125 2.15625C3.625 1.90625 4.09375 2 4.34375 2.3125C4.59375 2.65625 4.5 3.125 4.1875 3.375C2.6875 4.46875 1.71875 6.21875 1.71875 8.1875H1.75Z" fill="#003DAF"/>
</svg>
