<svg width="18" height="17" viewBox="0 0 18 17" fill="none" xmlns="http://www.w3.org/2000/svg">
<path d="M16.125 11.0938C16.9062 11.875 16.9062 13.1562 16.125 13.9375L14.4062 15.6562C13.625 16.4375 12.3438 16.4375 11.5625 15.6562L9.53125 13.625L10.5938 12.5625L12.625 14.5938C12.8125 14.7812 13.1562 14.7812 13.3438 14.5938L15.0625 12.875C15.25 12.6875 15.25 12.3438 15.0625 12.1562L14.5625 11.6562L13.8438 12.375C13.6562 12.5625 13.3125 12.5625 13.125 12.375C12.9375 12.1875 12.9375 11.8438 13.125 11.6562L13.8438 10.9375L13.0312 10.125L14.0938 9.0625L16.125 11.0938ZM3.875 7.96875L1.84375 5.9375C1.0625 5.15625 1.0625 3.875 1.84375 3.09375L3.5625 1.375C4.34375 0.59375 5.625 0.59375 6.40625 1.375L8.4375 3.40625L7.375 4.46875L6.5625 3.65625L5.84375 4.375C5.65625 4.5625 5.3125 4.5625 5.125 4.375C4.9375 4.1875 4.9375 3.84375 5.125 3.65625L5.84375 2.9375L5.34375 2.4375C5.15625 2.25 4.8125 2.25 4.625 2.4375L2.90625 4.15625C2.71875 4.34375 2.71875 4.6875 2.90625 4.875L4.9375 6.90625L3.875 7.96875ZM2.8125 10.625L12.3125 1.125C13.0938 0.34375 14.375 0.34375 15.1562 1.125L16.375 2.34375C16.4688 2.4375 16.5625 2.5625 16.625 2.65625C17.1562 3.4375 17.0625 4.5 16.375 5.1875L6.875 14.6875C6.84375 14.7188 6.78125 14.75 6.75 14.8125C6.4375 15.0625 6.09375 15.25 5.71875 15.375L1.9375 16.4688C1.6875 16.5625 1.40625 16.5 1.21875 16.2812C1 16.0938 0.9375 15.8125 1 15.5625L2.125 11.7812C2.25 11.3438 2.5 10.9375 2.8125 10.625ZM3.5625 12.2188L2.84375 14.6562L5.28125 13.9375C5.46875 13.875 5.65625 13.7812 5.8125 13.625L12.9688 6.46875L11 4.53125L3.875 11.6875C3.84375 11.6875 3.84375 11.7188 3.8125 11.75C3.6875 11.875 3.625 12.0312 3.5625 12.2188Z" fill="white"/>
</svg>
