<svg width="18" height="18" viewBox="0 0 18 18" fill="none" xmlns="http://www.w3.org/2000/svg">
<path d="M16.125 11.5938C16.9062 12.375 16.9062 13.6562 16.125 14.4375L14.4062 16.1562C13.625 16.9375 12.3438 16.9375 11.5625 16.1562L9.53125 14.125L10.5938 13.0625L12.625 15.0938C12.8125 15.2812 13.1562 15.2812 13.3438 15.0938L15.0625 13.375C15.25 13.1875 15.25 12.8438 15.0625 12.6562L14.5625 12.1562L13.8438 12.875C13.6562 13.0625 13.3125 13.0625 13.125 12.875C12.9375 12.6875 12.9375 12.3438 13.125 12.1562L13.8438 11.4375L13.0312 10.625L14.0938 9.5625L16.125 11.5938ZM3.875 8.46875L1.84375 6.4375C1.0625 5.65625 1.0625 4.375 1.84375 3.59375L3.5625 1.875C4.34375 1.09375 5.625 1.09375 6.40625 1.875L8.4375 3.90625L7.375 4.96875L6.5625 4.15625L5.84375 4.875C5.65625 5.0625 5.3125 5.0625 5.125 4.875C4.9375 4.6875 4.9375 4.34375 5.125 4.15625L5.84375 3.4375L5.34375 2.9375C5.15625 2.75 4.8125 2.75 4.625 2.9375L2.90625 4.65625C2.71875 4.84375 2.71875 5.1875 2.90625 5.375L4.9375 7.40625L3.875 8.46875ZM2.8125 11.125L12.3125 1.625C13.0938 0.84375 14.375 0.84375 15.1562 1.625L16.375 2.84375C16.4688 2.9375 16.5625 3.0625 16.625 3.15625C17.1562 3.9375 17.0625 5 16.375 5.6875L6.875 15.1875C6.84375 15.2188 6.78125 15.25 6.75 15.3125C6.4375 15.5625 6.09375 15.75 5.71875 15.875L1.9375 16.9688C1.6875 17.0625 1.40625 17 1.21875 16.7812C1 16.5938 0.9375 16.3125 1 16.0625L2.125 12.2812C2.25 11.8438 2.5 11.4375 2.8125 11.125ZM3.5625 12.7188L2.84375 15.1562L5.28125 14.4375C5.46875 14.375 5.65625 14.2812 5.8125 14.125L12.9688 6.96875L11 5.03125L3.875 12.1875C3.84375 12.1875 3.84375 12.2188 3.8125 12.25C3.6875 12.375 3.625 12.5312 3.5625 12.7188Z" fill="#003DAF"/>
</svg>
