<?xml version="1.0" encoding="utf-8"?>
<!-- Generator: Adobe Illustrator 19.0.0, SVG Export Plug-In . SVG Version: 6.00 Build 0)  -->
<svg version="1.1" id="Layer_1" xmlns="http://www.w3.org/2000/svg" xmlns:xlink="http://www.w3.org/1999/xlink" x="0px" y="0px"
	 viewBox="-113 141 384 512" style="enable-background:new -113 141 384 512;" xml:space="preserve">
<style type="text/css">
	.st0{fill:#003DAF;}
</style>
<path class="st0" d="M229.6,291.6c12.5-12.5,12.5-32.8,0-45.3c-12.5-12.5-32.8-12.5-45.3,0L79,351.7L-26.4,246.4
	c-12.5-12.5-32.8-12.5-45.3,0s-12.5,32.8,0,45.3L33.7,397L-71.6,502.4c-12.5,12.5-12.5,32.8,0,45.3s32.8,12.5,45.3,0L79,442.3
	l105.4,105.3c12.5,12.5,32.8,12.5,45.3,0s12.5-32.8,0-45.3L124.3,397L229.6,291.6z"/>
</svg>
